<?xml version="1.0" encoding="utf-8"?>
<!-- Generator: Adobe Illustrator 16.0.0, SVG Export Plug-In . SVG Version: 6.00 Build 0)  -->
<!DOCTYPE svg PUBLIC "-//W3C//DTD SVG 1.1//EN" "http://www.w3.org/Graphics/SVG/1.1/DTD/svg11.dtd">
<svg version="1.1" id="Layer_1" xmlns="http://www.w3.org/2000/svg" xmlns:xlink="http://www.w3.org/1999/xlink" x="0px" y="0px"
	 width="290px" height="56px" viewBox="0 0 290 56" enable-background="new 0 0 290 56" xml:space="preserve">
<g enable-background="new    ">
	<path d="M35.1,39.04c0,3.024-1.008,5.283-3.024,6.776c-0.971,0.709-1.97,1.26-2.996,1.651c-1.027,0.393-2.026,0.588-2.996,0.588
		H13.876c-0.971,0-1.97-0.195-2.996-0.588c-1.027-0.392-2.025-0.942-2.996-1.651c-0.972-0.747-1.718-1.671-2.24-2.772
		C5.121,41.943,4.86,40.608,4.86,39.04v-26.6c0-1.493,0.261-2.81,0.784-3.948C6.167,7.354,6.913,6.43,7.884,5.72H7.828
		c0.97-0.634,1.979-1.156,3.024-1.567c1.045-0.411,2.053-0.616,3.024-0.616h12.208c0.97,0,1.979,0.205,3.024,0.616
		c1.045,0.411,2.053,0.934,3.024,1.567h-0.056c0.97,0.71,1.717,1.634,2.24,2.772c0.522,1.139,0.784,2.455,0.784,3.948v3.863
		c0,1.792-1.12,2.688-3.36,2.688c-2.204,0-3.304-0.896-3.304-2.688v-3.359c0-0.933-0.28-1.792-0.84-2.576s-1.531-1.176-2.912-1.176
		h-9.408c-1.381,0-2.352,0.392-2.912,1.176c-0.56,0.784-0.84,1.644-0.84,2.576v25.647c0,0.972,0.28,1.849,0.84,2.632
		c0.56,0.784,1.53,1.177,2.912,1.177h9.408c1.381,0,2.352-0.393,2.912-1.177c0.56-0.783,0.84-1.66,0.84-2.632v-3.248
		c0-1.754,1.101-2.632,3.304-2.632c2.24,0,3.36,0.878,3.36,2.632V39.04z"/>
	<path d="M60.636,14.288c0.97,0,1.969,0.205,2.996,0.616c1.026,0.411,2.025,0.934,2.996,1.567h-0.056
		c0.97,0.71,1.717,1.634,2.24,2.772c0.522,1.139,0.784,2.455,0.784,3.948v15.903c0,3.062-1.008,5.32-3.024,6.776
		C64.592,47.291,62.614,48,60.636,48h-8.96c-0.971,0-1.96-0.168-2.968-0.504c-1.008-0.336-1.998-0.877-2.968-1.624
		c-2.016-1.418-3.024-3.677-3.024-6.776V23.192c0-1.493,0.261-2.81,0.784-3.948c0.522-1.139,1.269-2.063,2.24-2.772h-0.056
		c0.933-0.634,1.922-1.156,2.968-1.567c1.044-0.411,2.053-0.616,3.024-0.616H60.636z M59.628,42.736c1.38,0,2.36-0.393,2.94-1.177
		c0.578-0.783,0.868-1.624,0.868-2.52V23.248c0-0.933-0.29-1.782-0.868-2.548c-0.58-0.765-1.56-1.148-2.94-1.148h-6.944
		c-1.381,0-2.361,0.384-2.94,1.148c-0.579,0.766-0.868,1.615-0.868,2.548V39.04c0,0.896,0.289,1.736,0.868,2.52
		c0.579,0.784,1.559,1.177,2.94,1.177H59.628z"/>
	<path d="M94.011,23.64c0-0.484-0.075-0.96-0.224-1.428c-0.149-0.466-0.336-0.904-0.56-1.315c-0.485-0.896-1.493-1.345-3.024-1.345
		h-3.584c-1.531,0-2.558,0.448-3.08,1.345c-0.448,0.858-0.672,1.773-0.672,2.743v22.177c0,1.755-1.027,2.632-3.08,2.632
		c-2.128,0-3.192-0.877-3.192-2.632V23.136c0-3.061,1.008-5.301,3.024-6.72c2.053-1.418,4.05-2.128,5.992-2.128h5.656
		c0.858,0,1.811,0.168,2.856,0.504c1.044,0.336,2.053,0.859,3.024,1.568c0.933-0.709,1.913-1.232,2.94-1.568
		c1.026-0.336,2.006-0.504,2.94-0.504h5.6c1.978,0,3.957,0.71,5.936,2.128c2.053,1.382,3.08,3.622,3.08,6.72v22.681
		c0,1.755-1.045,2.632-3.136,2.632c-2.091,0-3.136-0.877-3.136-2.632V23.64c0-0.484-0.056-0.97-0.168-1.456
		c-0.112-0.484-0.317-0.933-0.616-1.344l0.056,0.057c-0.299-0.485-0.672-0.831-1.12-1.036c-0.448-0.205-1.102-0.309-1.96-0.309
		h-3.528c-1.568,0-2.595,0.448-3.08,1.345c-0.485,0.821-0.728,1.735-0.728,2.743v22.177c0,1.755-1.027,2.632-3.08,2.632
		c-2.091,0-3.136-0.877-3.136-2.632V23.64z"/>
	<path d="M135.786,48c-1.344,0-2.054-0.877-2.128-2.632c0-1.755,0.708-2.632,2.128-2.632h5.656c1.381,0,2.361-0.393,2.94-1.177
		c0.579-0.783,0.868-1.624,0.868-2.52V23.248c0-0.933-0.29-1.801-0.868-2.604c-0.579-0.802-1.578-1.166-2.996-1.092h-10.752v33.656
		c0,1.754-1.027,2.632-3.08,2.632c-2.054,0-3.08-0.896-3.08-2.688V17.592c0-1.307,0.336-2.184,1.008-2.632s1.493-0.672,2.464-0.672
		h14.504c0.97,0,1.95,0.168,2.94,0.504c0.989,0.336,2.006,0.804,3.051,1.4c0.896,0.635,1.615,1.521,2.156,2.659
		c0.541,1.14,0.813,2.474,0.813,4.005v16.575c0,3.062-0.99,5.246-2.969,6.553C146.351,47.328,144.354,48,142.45,48H135.786z"/>
	<path d="M185.346,39.096c0,1.494-0.262,2.819-0.784,3.977s-1.27,2.091-2.239,2.8h0.055c-0.934,0.635-1.923,1.147-2.967,1.54
		c-1.047,0.392-2.055,0.588-3.024,0.588h-9.017c-0.934,0-1.932-0.196-2.996-0.588c-1.063-0.393-2.063-0.905-2.996-1.54h0.057
		c-0.971-0.709-1.718-1.643-2.24-2.8c-0.523-1.157-0.783-2.482-0.783-3.977V16.64c0-1.792,1.025-2.688,3.08-2.688
		c2.053,0,3.08,0.896,3.08,2.688v22.009c0,1.045,0.26,1.96,0.783,2.743c0.484,0.896,1.492,1.345,3.023,1.345h7
		c1.493,0,2.482-0.448,2.969-1.345l-0.057,0.057c0.598-0.896,0.896-1.829,0.896-2.8V16.64c0-1.792,1.026-2.688,3.08-2.688
		c2.053,0,3.08,0.896,3.08,2.688V39.096z"/>
</g>
<g enable-background="new    ">
	<path fill="#92009C" d="M214.072,22.408c0.971,0,1.979,0.205,3.024,0.616c1.045,0.411,2.053,0.951,3.024,1.624h-0.057
		c0.971,0.672,1.717,1.587,2.24,2.743c0.522,1.158,0.784,2.483,0.784,3.977v7.672c0,3.024-1.009,5.283-3.024,6.776
		c-0.971,0.709-1.969,1.26-2.996,1.651c-1.027,0.393-2.025,0.588-2.996,0.588h-12.207c-0.972,0-1.971-0.195-2.996-0.588
		c-1.027-0.392-2.025-0.942-2.996-1.651c-2.017-1.493-3.024-3.752-3.024-6.776v-3.696c0-1.754,1.101-2.632,3.304-2.632
		c2.24,0,3.36,0.878,3.36,2.632v3.248c0,0.972,0.28,1.849,0.84,2.632c0.56,0.784,1.53,1.177,2.912,1.177h9.408
		c1.38,0,2.352-0.393,2.911-1.177c0.561-0.783,0.841-1.66,0.841-2.632v-6.775c0-0.934-0.28-1.801-0.841-2.604
		c-0.56-0.803-1.531-1.204-2.911-1.204h-10.808c-1.942,0-3.939-0.709-5.992-2.128c-2.017-1.568-3.024-3.826-3.024-6.776V12.44
		c0-1.493,0.261-2.81,0.784-3.948c0.521-1.139,1.269-2.063,2.24-2.772h-0.057c0.971-0.634,1.979-1.156,3.024-1.567
		c1.044-0.411,2.053-0.616,3.024-0.616h12.207c0.971,0,1.979,0.205,3.024,0.616c1.045,0.411,2.053,0.934,3.024,1.567h-0.057
		c0.971,0.71,1.717,1.634,2.24,2.772c0.522,1.139,0.784,2.455,0.784,3.948v3.304c0,1.755-1.12,2.632-3.36,2.632
		c-2.203,0-3.304-0.877-3.304-2.632v-2.8c0-0.933-0.28-1.792-0.841-2.576c-0.56-0.784-1.531-1.176-2.911-1.176h-9.408
		c-1.382,0-2.353,0.392-2.912,1.176s-0.84,1.644-0.84,2.576v5.712c0,0.971,0.28,1.839,0.84,2.604c0.56,0.766,1.53,1.148,2.912,1.148
		H214.072z"/>
	<path fill="#92009C" d="M233.168,55.84c-1.307,0-1.998-0.878-2.072-2.632c0-1.755,0.69-2.632,2.072-2.632h2.464
		c1.307,0,2.165-0.393,2.576-1.176l0.784-2.072l0.279-0.896l-10.92-28.615v0.056c-0.299-0.896-0.233-1.661,0.196-2.296
		c0.429-0.635,1.093-1.101,1.988-1.4c0.672-0.187,1.212-0.279,1.624-0.279c1.082,0,1.754,0.635,2.016,1.903l4.424,11.032
		l3.752,9.184l5.992-20.104c0.336-1.344,1.12-2.016,2.352-2.016c0.299,0,0.785,0.093,1.457,0.279
		c0.896,0.262,1.539,0.691,1.932,1.288c0.393,0.598,0.477,1.308,0.252,2.128c-1.68,5.712-3.389,11.462-5.124,17.248
		c-1.735,5.787-3.444,11.518-5.124,17.192c-0.188,0.41-0.477,0.83-0.868,1.26c-0.392,0.429-0.905,0.84-1.54,1.232
		c-0.635,0.392-1.419,0.708-2.352,0.951c-0.934,0.243-2.016,0.364-3.248,0.364H233.168z"/>
	<path fill="#92009C" d="M277.295,28.4c0.934,0,1.933,0.215,2.996,0.644c1.064,0.43,2.063,0.962,2.996,1.596h-0.056
		c0.971,0.71,1.717,1.624,2.24,2.744c0.522,1.12,0.784,2.464,0.784,4.032v1.68c0,3.062-1.008,5.32-3.024,6.776
		c-0.972,0.747-1.96,1.288-2.968,1.624S278.266,48,277.295,48h-9.52c-0.971,0-1.96-0.168-2.968-0.504s-1.997-0.877-2.968-1.624
		c-2.016-1.418-3.024-3.677-3.024-6.776v-0.672c0-1.604,1.026-2.389,3.08-2.352c2.091,0,3.136,0.784,3.136,2.352v0.616
		c0,0.896,0.28,1.736,0.84,2.52c0.561,0.784,1.549,1.177,2.969,1.177h7.392c1.419,0,2.408-0.393,2.968-1.177
		c0.561-0.783,0.84-1.624,0.84-2.52v-1.568c0-0.484-0.064-0.952-0.195-1.399c-0.131-0.448-0.346-0.849-0.645-1.204
		c-0.299-0.354-0.691-0.645-1.176-0.868c-0.485-0.224-1.083-0.336-1.792-0.336h-8.176c-1.903,0-3.901-0.672-5.992-2.016
		c-1.979-1.27-2.968-3.453-2.968-6.553v-1.903c0-1.493,0.261-2.81,0.783-3.948c0.523-1.139,1.27-2.063,2.24-2.772h-0.056
		c0.933-0.634,1.923-1.156,2.968-1.567s2.053-0.616,3.024-0.616h8.96c0.971,0,1.969,0.205,2.996,0.616
		c1.026,0.411,2.025,0.934,2.996,1.567h-0.057c0.971,0.71,1.717,1.634,2.24,2.772c0.522,1.139,0.784,2.455,0.784,3.948v0.504
		c0,0.784-0.262,1.354-0.784,1.708c-0.523,0.354-1.287,0.551-2.296,0.588c-2.054,0.037-3.08-0.729-3.08-2.296v-0.448
		c0-0.933-0.29-1.782-0.868-2.548c-0.579-0.765-1.559-1.148-2.939-1.148h-6.944c-1.382,0-2.361,0.384-2.94,1.148
		c-0.578,0.766-0.867,1.615-0.867,2.548v1.344c0,0.972,0.289,1.849,0.867,2.632c0.579,0.784,1.559,1.177,2.94,1.177H277.295z"/>
</g>
</svg>
